<?xml version="1.0" encoding="utf-8"?>
<!-- Generator: Adobe Illustrator 27.6.1, SVG Export Plug-In . SVG Version: 6.00 Build 0)  -->
<svg version="1.1" id="Layer_2_00000047037462981675422030000013002841844597496241_"
	 xmlns="http://www.w3.org/2000/svg" xmlns:xlink="http://www.w3.org/1999/xlink" x="0px" y="0px" viewBox="0 0 360 360"
	 style="enable-background:new 0 0 360 360;" xml:space="preserve">
<style type="text/css">
	.st0{fill:#161E31;}
	.st1{fill:#E2FFFA;}
	.st2{fill:#70AFC5;}
</style>
<g id="Background">
	<circle class="st0" cx="180" cy="180" r="180"/>
</g>
<g id="Spine">
	<path class="st1" d="M149.8,56.3h-15.3c0,0,0-6.8,3.4-6.8h-5.1c-5.1-3.4,0-6.8,0-6.8h8.5c0,0,0-5.1,6.8-5.1h10.2c0,0,6.8,0,3.4,5.1
		c0,0-3.4,13.6-5.1,13.6L149.8,56.3L149.8,56.3z"/>
	<path class="st1" d="M135.5,85.9h-6.2c-1.6,0-2.9-1.3-2.9-2.9v-4.4h-7.2c-5.4-3.6,0-7.2,0-7.2h7.2c0,0,1.8-5.4,3.6-5.4h25.3
		c0,0,3.6,1.8,3.6,12.7c0,0,0,7.2-3.6,7.2H135.5L135.5,85.9z"/>
	<path class="st1" d="M227.9,301.1H207c-1.5,0-2.7-0.8-2.7-1.8l-0.1-1.8H197c-2.6-1.1-2.4-2.5-1.7-3.7c0.9-1.3,2.4-1.9,3.9-1.9h5.1
		c0,0,1.7-3.5,3.4-3.5h23.9c0,0,3.4,1.8,1.6,7.2l-3.6,5.4H227.9L227.9,301.1z"/>
	<path class="st1" d="M150,93.1c3.6-1.8,9,0,9,0s12.7,10.8,3.6,19.9h-23.5c-16.3,0-12.7-7.2-12.7-7.2c-10.8,1.8-10.8-3.6-10.8-3.6
		c0-3.6,9-1.8,9-1.8v-5.4c3.6-3.6,9-1.8,9-1.8L150,93.1L150,93.1z"/>
	<path class="st1" d="M130.1,125.7c0-1.3,0.2-2.3,0.5-3.1c0.5-1.4,1.9-2.3,3.3-2.3h34.4c1,0,1.9,0.4,2.6,1.2
		c3.4,3.8,13.1,15.4,2.5,16.9h-34.4c0,0-7.2-1.8-7.2-5.4c0,0-12.7,1.8-12.7-3.6c0,0,0-3.6,7.2-3.6L130.1,125.7L130.1,125.7z"/>
	<path class="st1" d="M140.2,151c0-1.3,0.2-2.3,0.6-3.1c0.5-1.4,2-2.3,3.7-2.3h37.9c1.1,0,2.1,0.4,2.9,1.2
		c3.8,3.8,14.5,15.4,2.8,16.9h-37.9c0,0-8-1.8-8-5.4c0,0-13.9,1.8-13.9-3.6c0,0,0-3.6,8-3.6L140.2,151L140.2,151z"/>
	<path class="st1" d="M154.7,176.3c0-1.3,0.2-2.3,0.6-3.1c0.5-1.4,2-2.3,3.7-2.3h37.9c1.1,0,2.1,0.4,2.9,1.2
		c3.8,3.8,14.5,15.4,2.8,16.9h-37.9c0,0-8-1.8-8-5.4c0,0-13.9,1.8-13.9-3.6c0,0,0-3.6,8-3.6L154.7,176.3L154.7,176.3z"/>
	<path class="st1" d="M170.3,200.9c0-1.1,0.2-2,0.5-2.7c0.5-1.2,1.9-2,3.5-2h35.8c1,0,2,0.4,2.7,1c3.6,3.3,13.7,13.4,2.6,14.8h-35.8
		c0,0-7.5-1.6-7.5-4.7c0,0-13.2,1.6-13.2-3.1c0,0,0-3.1,7.5-3.1L170.3,200.9L170.3,200.9z"/>
	<path class="st1" d="M187.9,219.7h33.7c1,0,3.7,1.2,4.3,1.8c3.4,3.3,9,12.7,0.7,14H193c0,0-7.1-1.6-7.1-4.7c0,0-12.4,1.6-12.4-3.1
		c0,0,0-3.1,7.1-3.1h2.4C183,224.4,182.4,219.7,187.9,219.7L187.9,219.7z"/>
	<path class="st1" d="M197.5,243.2h30.8c0.9,0,3.4,1.1,4,1.7c3.1,3,8.2,11.6,0.6,12.8h-30.7c0,0-6.5-1.5-6.5-4.3
		c0,0-11.3,1.4-11.3-2.9c0,0,0-2.9,6.5-2.9h2.2C193,247.6,192.4,243.2,197.5,243.2L197.5,243.2z"/>
	<path class="st1" d="M231.9,280.3h-24.7c-0.9,0-1.8-0.3-2.4-1c-0.8-0.7-1.6-1.8-1.6-3.4c0,0-9.8,1.5-9.8-2.9c0,0,0-2.9,5.6-2.9h1.9
		c0,0-0.5-4.3,3.8-4.3h26.5c0.8,0,2.9,1.1,3.4,1.7c0,0,6.7,4.2-0.9,12C233.3,280,232.6,280.3,231.9,280.3L231.9,280.3z"/>
	<path class="st1" d="M201.3,311.9c-9.2-0.8-8.3,3.1-8.3,3.1c2,4,7,3,7,3v5h16l7-9c0,0,0-4-2-4h-17l-1.5,1.5
		C202.2,311.8,201.7,312,201.3,311.9L201.3,311.9z"/>
	<path class="st1" d="M205,335l-26,21l1-3l9-13c0,0,2-7,7-8C196,332,207,328,205,335z"/>
	<path class="st1" d="M190,0l-6.2,6.2l-12.4,15.5c0,0,3.1,9.3-6.2,6.2c0,0-3.1,3.1-9.3,0c0,0,3.1-9.3,27.9-24.8L190,0z"/>
</g>
<g id="Outer">
	<path class="st2" d="M223.1,172.9C282.9,263.1,242,320,242,320c89-43,90-126,90-126C339,64,220,33,220,33c-13,36,28,110,28,110
		C177,65,208,6,208,6s-58,54-7,129L223.1,172.9z"/>
	<path class="st2" d="M139.2,188.1C79.4,97.8,120.3,41,120.3,41c-89,43-90,126-90,126c-7,130,112,161,112,161c13-36-28-110-28-110
		c71,78,40,137,40,137s58-54,7-129L139.2,188.1z"/>
</g>
</svg>
