<?xml version="1.0" encoding="UTF-8"?>
<svg id="Layer_2" data-name="Layer 2" xmlns="http://www.w3.org/2000/svg" viewBox="0 0 302.28 355.98">
  <defs>
    <style>
      .cls-1 {
        fill: #e2fffa;
      }

      .cls-2 {
        fill: #70afc5;
      }
    </style>
  </defs>
  <g id="Spine">
    <g>
      <path class="cls-1" d="m119.76,56.32h-15.31s0-6.81,3.4-6.81h-5.1c-5.1-3.4,0-6.81,0-6.81h8.51s0-5.1,6.81-5.1h10.21s6.81,0,3.4,5.1c0,0-3.4,13.61-5.1,13.61h-6.81Z"/>
      <path class="cls-1" d="m105.49,85.84h-6.18c-1.58,0-2.86-1.28-2.86-2.86v-4.37s-7.23,0-7.23,0c-5.43-3.62,0-7.23,0-7.23h7.23s1.81-5.43,3.62-5.43h25.32s3.62,1.81,3.62,12.66c0,0,0,7.23-3.62,7.23h-19.89Z"/>
      <path class="cls-1" d="m197.91,301.05h-20.95c-1.49,0-2.7-.82-2.7-1.82l-.05-1.8h-7.23c-2.56-1.15-2.44-2.55-1.69-3.66.86-1.26,2.37-1.93,3.9-1.93h5.07s1.71-3.45,3.41-3.45h23.87s3.41,1.81,1.6,7.23l-3.62,5.43h-1.62Z"/>
      <path class="cls-1" d="m119.96,93.08c3.62-1.81,9.04,0,9.04,0,0,0,12.66,10.85,3.62,19.89h-23.51c-16.28,0-12.66-7.23-12.66-7.23-10.85,1.81-10.85-3.62-10.85-3.62,0-3.62,9.04-1.81,9.04-1.81v-5.43c3.62-3.62,9.04-1.81,9.04-1.81h16.28Z"/>
      <path class="cls-1" d="m100.07,125.63c0-1.26.22-2.3.51-3.12.49-1.4,1.85-2.3,3.33-2.3h34.42c1,0,1.95.42,2.63,1.16,3.43,3.75,13.12,15.41,2.52,16.93h-34.36s-7.23-1.81-7.23-5.43c0,0-12.66,1.81-12.66-3.62,0,0,0-3.62,7.23-3.62h3.62Z"/>
      <path class="cls-1" d="m110.22,150.95c0-1.26.24-2.3.56-3.12.54-1.4,2.04-2.3,3.67-2.3h37.93c1.1,0,2.15.42,2.89,1.16,3.78,3.75,14.46,15.41,2.78,16.93h-37.87s-7.97-1.81-7.97-5.43c0,0-13.95,1.81-13.95-3.62,0,0,0-3.62,7.97-3.62h3.99Z"/>
      <path class="cls-1" d="m124.69,176.26c0-1.26.24-2.3.56-3.12.54-1.4,2.04-2.3,3.67-2.3h37.93c1.1,0,2.15.42,2.89,1.16,3.78,3.75,14.46,15.41,2.78,16.93h-37.87s-7.97-1.81-7.97-5.43c0,0-13.95,1.81-13.95-3.62,0,0,0-3.62,7.97-3.62h3.99Z"/>
      <path class="cls-1" d="m140.3,200.89c0-1.1.23-2.01.53-2.72.51-1.22,1.92-2.01,3.47-2.01h35.83c1.04,0,2.03.37,2.73,1.01,3.57,3.27,13.66,13.44,2.62,14.76h-35.76s-7.53-1.58-7.53-4.73c0,0-13.18,1.58-13.18-3.15,0,0,0-3.15,7.53-3.15h3.76Z"/>
      <path class="cls-1" d="m157.86,219.67h33.72c.98,0,3.68,1.16,4.34,1.81,3.36,3.27,9.04,12.66.7,13.97h-33.66s-7.09-1.58-7.09-4.73c0,0-12.4,1.58-12.4-3.15,0,0,0-3.15,7.09-3.15h2.44s-.64-4.73,4.86-4.73Z"/>
      <path class="cls-1" d="m167.45,243.18h30.77c.9,0,3.35,1.07,3.96,1.66,3.07,3,8.25,11.61.64,12.81h-30.71s-6.47-1.45-6.47-4.34c0,0-11.32,1.45-11.32-2.89,0,0,0-2.89,6.47-2.89h2.22s-.59-4.34,4.44-4.34Z"/>
      <path class="cls-1" d="m201.83,280.25h-24.71c-.89,0-1.76-.33-2.44-.98-.76-.72-1.56-1.84-1.56-3.36,0,0-9.75,1.45-9.75-2.89,0,0,0-2.89,5.57-2.89h1.92s-.51-4.34,3.83-4.34h26.52c.77,0,2.89,1.07,3.41,1.66,0,0,6.67,4.24-.85,11.99-.53.54-1.23.82-1.94.82Z"/>
      <path class="cls-1" d="m171.28,311.91c-9.25-.75-8.3,3.06-8.3,3.06,2,4,7,3,7,3v5h16l7-9s0-4-2-4h-17l-1.5,1.5c-.31.31-.76.47-1.2.43Z"/>
      <path class="cls-1" d="m174.98,334.98l-26,21,1-3,9-13s2-7,7-8c0,0,11-4,9,3Z"/>
      <path class="cls-1" d="m159.99,0l-6.19,6.19-12.38,15.47s3.09,9.28-6.19,6.19c0,0-3.09,3.09-9.28,0,0,0,3.09-9.28,27.85-24.76l6.19-3.09Z"/>
    </g>
  </g>
  <g id="Outer">
    <g>
      <path class="cls-2" d="m193.07,172.85c59.78,90.27,18.91,147.12,18.91,147.12,89-43,90-126,90-126,7-130-112-161-112-161-13,36,28,110,28,110C146.98,64.98,177.98,5.98,177.98,5.98c0,0-58,54-7,129l22.09,37.88Z"/>
      <path class="cls-2" d="m109.21,188.1c-59.78-90.27-18.91-147.12-18.91-147.12C1.3,83.98.3,166.98.3,166.98c-7,130,112,161,112,161,13-36-28-110-28-110,71,78,40,137,40,137,0,0,58-54,7-129l-22.09-37.88Z"/>
    </g>
  </g>
</svg>